<?xml version="1.0" standalone="no"?><svg xmlns="http://www.w3.org/2000/svg" width="100" height="100" viewBox="650 100 100 100"><path fill="#5000ca" fill-opacity="1" d="M0,160L24,154.7C48,149,96,139,144,112C192,85,240,43,288,58.7C336,75,384,149,432,176C480,203,528,181,576,181.3C624,181,672,203,720,197.3C768,192,816,160,864,128C912,96,960,64,1008,64C1056,64,1104,96,1152,138.7C1200,181,1248,235,1296,266.7C1344,299,1392,309,1416,314.7L1440,320L1440,320L1416,320C1392,320,1344,320,1296,320C1248,320,1200,320,1152,320C1104,320,1056,320,1008,320C960,320,912,320,864,320C816,320,768,320,720,320C672,320,624,320,576,320C528,320,480,320,432,320C384,320,336,320,288,320C240,320,192,320,144,320C96,320,48,320,24,320L0,320Z"></path></svg>